<?xml version="1.0" encoding="utf-8" ?><svg xmlns="http://www.w3.org/2000/svg" xmlns:xlink="http://www.w3.org/1999/xlink" width="1000" height="1000" viewBox="0 0 1000 1000"><clipPath id="cl_3"><rect x="-0.00036621094" y="-6.1035156e-05" width="1000" height="1000.0001"/></clipPath><g clip-path="url(#cl_3)"><defs><linearGradient id="gradient_0" gradientUnits="userSpaceOnUse" x1="500.30856" y1="719.0434" x2="515.17303" y2="338.45703"><stop offset="0" stop-color="#6B27EF"/><stop offset="1" stop-color="#5273F1"/></linearGradient></defs><path fill="url(#gradient_0)" transform="matrix(2.45098 0 0 2.45098 -754.902 -769.608)" d="M696.347 343.922C703.477 360.156 702.109 370.427 702.128 387.688L702.118 431.475L702.09 477.342C702.101 486.886 702.752 497.636 701.615 507.067C694.905 562.723 633.533 592.35 587.805 557.565C582.627 553.627 577.447 544.017 569.382 547.595C557.938 553.496 560.349 566.463 564.827 575.579C573.274 592.778 588.354 603.007 605.846 609.019C610.946 610.718 616.142 612.115 621.406 613.203C608.046 628.911 589.501 645.916 574.553 660.437L512.392 721.488C503.996 714.857 491.942 702.526 484.09 694.719L443.053 653.764C434.277 645.001 425.425 636.315 416.498 627.705C412.285 623.605 405.762 617.627 402.074 613.28C424.194 608.995 440.664 601.934 455.198 582.151C461.584 573.46 470.161 547.633 448.393 546.838C445.407 546.729 438.973 554.916 435.831 557.393C413.569 574.828 382.993 577.124 358.376 563.21C341.405 553.406 329.058 537.223 324.083 518.265C320.347 504.231 321.215 485.8 321.214 470.965L321.206 426.096L321.134 389.232C321.115 377.03 320.232 359.527 325.071 348.494C336.123 348.581 345.305 345.129 356.557 350.631C347.218 362.501 349.479 375.074 349.508 389.398L349.59 431.046L349.542 475.051C349.468 497.074 346.789 519.27 366.121 534.451C375.383 541.838 387.269 545.103 399.005 543.484C413.924 541.489 419.765 529.978 431.746 522.736C441.4 516.901 455.563 516.687 465.693 521.184C498.654 535.815 495.589 575.91 476.193 600.661C468.521 610.452 461.697 615.933 452.145 623.21C471.687 643.372 491.765 663.009 512.356 682.1C531.14 661.907 552.77 643.223 571.411 623.426C554.936 612.553 537.793 592.955 533.733 573.338C528.803 549.527 538.84 523.799 564.777 519.163C583.506 515.815 593.932 523.198 606.877 535.709C614.347 542.883 628.557 544.751 638.776 542.863C649.686 540.815 659.306 534.447 665.452 525.203C669.578 518.998 672.253 511.942 673.277 504.56C674.321 496.896 674.013 485.658 674.01 477.653L673.978 437.181L673.941 394.295C673.927 381.198 675.435 365.291 669.025 353.608C676.393 349.475 682.782 350.894 690.37 348.778C692.514 346.454 693.266 344.888 696.347 343.922Z"/><defs><linearGradient id="gradient_1" gradientUnits="userSpaceOnUse" x1="512.22766" y1="471.46194" x2="510.30487" y2="330.99545"><stop offset="0" stop-color="#4449EE"/><stop offset="1" stop-color="#8191F2"/></linearGradient></defs><path fill="url(#gradient_1)" transform="matrix(2.45098 0 0 2.45098 -754.902 -769.608)" d="M463.513 350.355C466.331 342.555 469.297 336.852 474.982 330.636C483.896 320.755 496.435 314.91 509.734 314.437C524.512 313.911 536.429 319.119 547.075 329.12C551.669 334.245 556.679 340.133 558.75 347.047C564.394 366.426 561.461 387.851 562.129 407.788C562.407 416.109 561.392 425.997 564.928 433.679C569.333 443.25 583.918 445.366 591.437 438.318C597.164 432.95 597.605 425.684 597.877 418.328C598.747 394.8 595.057 374.166 600.484 350.957C609.189 350.266 631.511 341.611 639.069 346.103C624.993 353.915 626.373 363.175 626.454 377.168L626.543 407.238C626.559 415.529 626.934 425.589 625.383 433.542C624.326 438.944 622.335 444.119 619.5 448.837C613.161 459.607 602.742 467.362 590.605 470.342C578.647 473.191 566.045 471.087 555.661 464.508C533.625 450.843 533.606 430.979 533.635 408.403L533.505 379.581C533.528 372.606 533.97 365.652 532.383 358.821C528.453 344.055 512.797 339.964 500.349 347.098C488.187 354.069 489.47 365.595 489.653 378.23L489.984 404.205C490.149 419.413 491.051 432.959 483.742 446.954C478.054 457.796 468.335 465.97 456.679 469.715C445.279 473.219 432.952 472.033 422.429 466.419C408.646 459.115 399.303 445.536 397.406 430.053C396.581 423.719 396.83 415.689 396.85 409.149L396.954 379.339C396.993 365.904 398.265 352.7 384.003 345.992L383.349 345.691C388.085 340.782 410.299 348.28 419.567 342.496C426.434 357.107 424.828 362.509 425.805 377.459C426.651 390.413 423.47 419.717 426.958 430.703C428.475 435.621 432.198 439.55 437.028 441.33C446.414 444.766 457.449 439.624 460.076 429.763C461.754 423.462 460.782 416.083 461.04 409.593C461.662 390.398 459.073 368.977 463.513 350.355Z"/><path fill="#7870FE" transform="matrix(2.45098 0 0 2.45098 -754.902 -769.608)" d="M463.513 350.355C466.331 342.555 469.297 336.852 474.982 330.636C483.896 320.755 496.435 314.91 509.734 314.437C524.512 313.911 536.429 319.119 547.075 329.12C544.847 330.928 543.997 332.134 542.205 334.337C533.944 334.943 526.423 336.046 518.629 333.305C517.558 332.929 513.114 336.161 511.937 336.931C505.357 337.008 497.002 336.542 490.752 338.286C480.835 341.052 474.032 349.801 463.513 350.355Z"/><path fill="#7870FE" transform="matrix(2.45098 0 0 2.45098 -754.902 -769.608)" d="M600.484 350.957C604.984 337.846 613.013 327.367 625.366 320.755C637.708 314.197 652.171 312.89 665.489 317.129C680.294 321.81 689.376 330.373 696.347 343.922C693.266 344.888 692.514 346.454 690.37 348.778C682.782 350.894 676.393 349.475 669.025 353.608C661.114 343.177 650.725 341.873 639.069 346.103C631.511 341.611 609.189 350.266 600.484 350.957Z"/><path fill="#7870FE" transform="matrix(2.45098 0 0 2.45098 -754.902 -769.608)" d="M325.071 348.494C329.555 336.88 338.403 326.436 349.411 320.538C361.551 314.151 375.71 312.775 388.852 316.704C403.195 321.065 412.618 329.548 419.567 342.496C410.299 348.28 388.085 340.782 383.349 345.691C373.729 342.441 364.361 343.817 356.557 350.631C345.305 345.129 336.123 348.581 325.071 348.494Z"/></g></svg>